<?xml version="1.0" standalone="no"?>
<!DOCTYPE svg PUBLIC "-//W3C//DTD SVG 20010904//EN"
 "http://www.w3.org/TR/2001/REC-SVG-20010904/DTD/svg10.dtd">
<svg version="1.0" xmlns="http://www.w3.org/2000/svg"
 width="1280.000000pt" height="1149.000000pt" viewBox="0 0 1280.000000 1149.000000"
 preserveAspectRatio="xMidYMid meet">
<metadata>
Created by potrace 1.15, written by Peter Selinger 2001-2017
</metadata>
<g transform="translate(0.000000,1149.000000) scale(0.100000,-0.100000)"
fill="#000000" stroke="none">
<path d="M12497 11476 c-137 -51 -260 -167 -744 -706 -66 -74 -160 -173 -207
-219 l-86 -84 -63 6 c-34 3 -106 11 -159 18 -91 12 -108 11 -250 -11 -84 -14
-193 -25 -243 -25 -80 0 -97 3 -147 29 -90 46 -192 133 -497 427 -352 339
-394 372 -493 385 -111 15 -177 -113 -178 -347 0 -102 8 -139 93 -429 63 -214
80 -280 122 -475 77 -361 102 -444 179 -589 l43 -82 7 -219 c8 -272 -1 -353
-49 -452 -32 -64 -54 -90 -203 -230 -92 -86 -259 -250 -372 -363 -229 -230
-291 -276 -525 -395 -267 -136 -492 -221 -690 -260 -179 -36 -423 -122 -959
-337 -445 -178 -664 -303 -981 -556 -149 -120 -489 -457 -621 -617 -553 -670
-909 -1432 -989 -2113 -19 -162 -19 -329 0 -521 67 -664 72 -1195 15 -1621
-68 -514 -71 -526 -152 -616 -58 -63 -123 -109 -248 -177 -213 -114 -327 -150
-520 -162 -136 -9 -1307 12 -1470 26 -875 74 -1378 413 -1465 989 -24 157 -16
418 21 627 26 152 95 364 161 498 85 171 238 357 369 451 142 101 329 164 494
164 100 0 253 24 323 50 59 22 107 67 107 101 0 84 -142 188 -328 241 -111 32
-271 30 -404 -5 -410 -108 -796 -395 -1051 -782 -71 -108 -173 -316 -215 -440
-120 -350 -154 -782 -86 -1115 23 -112 86 -295 137 -396 164 -324 429 -572
812 -759 445 -218 919 -320 1715 -367 324 -19 1098 -16 1337 5 426 38 695 86
968 174 l109 35 194 -12 c224 -15 306 -11 632 31 448 58 453 58 555 37 283
-60 1225 -9 1615 86 288 71 390 160 393 343 0 51 -5 91 -15 115 -21 47 -90
122 -138 149 l-38 22 70 81 c226 261 392 579 478 914 24 96 63 341 82 517 7
68 13 242 13 402 0 155 3 279 6 275 12 -13 87 -256 118 -382 45 -184 86 -398
121 -635 36 -241 49 -306 91 -462 61 -227 196 -595 305 -831 60 -128 127 -194
267 -261 172 -83 353 -120 623 -128 201 -6 282 3 372 43 111 49 192 158 192
258 0 82 -19 126 -80 186 -64 62 -264 191 -434 281 -102 54 -117 64 -135 102
-30 63 -90 322 -102 445 -7 66 -11 416 -11 920 0 790 0 814 19 835 28 32 99
147 283 457 252 427 254 430 455 640 166 173 301 359 495 680 217 359 301 610
300 901 0 57 -7 194 -15 304 -8 110 -15 304 -15 432 l0 231 34 80 c87 203 167
521 236 932 32 196 64 312 161 604 92 277 115 356 144 506 23 114 49 181 91
232 55 65 65 92 85 229 22 153 38 226 123 559 92 365 110 476 110 690 1 192
-12 266 -60 347 -51 88 -145 123 -237 89z"/>
</g>
</svg>
